HIERARCHY
ROOT Hips
{
  OFFSET -242.653 98.7439 237.796
  CHANNELS 6 Xposition Yposition Zposition Zrotation Xrotation Yrotation
  JOINT ToSpine
  {
    OFFSET -2.69724 7.43032 -0.144315
    CHANNELS 3 Zrotation Xrotation Yrotation
    JOINT Spine
    {
      OFFSET -0.0310711 10.7595 1.96963
      CHANNELS 3 Zrotation Xrotation Yrotation
      JOINT Spine1
      {
        OFFSET 19.9056 3.91189 0.764692
        CHANNELS 3 Zrotation Xrotation Yrotation
        JOINT Neck
        {
          OFFSET 25.9749 7.03908 -0.130764
          CHANNELS 3 Zrotation Xrotation Yrotation
          JOINT Head
          {
            OFFSET 9.52751 0.295786 -0.907742
            CHANNELS 3 Zrotation Xrotation Yrotation
            End Site
            {
              OFFSET 16.4037 0.713936 2.7358
            }
          }
        }
        JOINT LeftShoulder
        {
          OFFSET 17.7449 4.33886 11.7777
          CHANNELS 3 Zrotation Xrotation Yrotation
          JOINT LeftArm
          {
            OFFSET 0.911315 1.27913 9.80584
            CHANNELS 3 Zrotation Xrotation Yrotation
            JOINT LeftForeArm
            {
              OFFSET 28.6126 1.18197 -3.53199
              CHANNELS 3 Zrotation Xrotation Yrotation
              JOINT LeftHand
              {
                OFFSET 27.5088 0.0218783 0.327423
                CHANNELS 3 Zrotation Xrotation Yrotation
                End Site
                {
                  OFFSET 18.6038 -0.000155887 0.382096
                }
              }
            }
          }
        }
        JOINT RightShoulder
        {
          OFFSET 17.1009 2.89543 -12.2328
          CHANNELS 3 Zrotation Xrotation Yrotation
          JOINT RightArm
          {
            OFFSET 1.4228 0.178766 -10.211
            CHANNELS 3 Zrotation Xrotation Yrotation
            JOINT RightForeArm
            {
              OFFSET 28.733 1.87905 2.64907
              CHANNELS 3 Zrotation Xrotation Yrotation
              JOINT RightHand
              {
                OFFSET 27.4588 0.290562 -0.101845
                CHANNELS 3 Zrotation Xrotation Yrotation
                End Site
                {
                  OFFSET 17.8396 -0.255518 -0.000602873
                }
              }
            }
          }
        }
      }
    }
  }
  JOINT LeftUpLeg
  {
    OFFSET -5.61296 -2.22332 -10.2353
    CHANNELS 3 Zrotation Xrotation Yrotation
    JOINT LeftLeg
    {
      OFFSET 2.56703 -44.7417 -7.93097
      CHANNELS 3 Zrotation Xrotation Yrotation
      JOINT LeftFoot
      {
        OFFSET 3.16933 -46.5642 -3.96578
        CHANNELS 3 Zrotation Xrotation Yrotation
        JOINT LeftToeBase
        {
          OFFSET 0.346054 -6.02161 12.8035
          CHANNELS 3 Zrotation Xrotation Yrotation
          End Site
          {
            OFFSET 0.134235 -1.35082 5.13018
          }
        }
      }
    }
  }
  JOINT RightUpLeg
  {
    OFFSET -5.7928 -1.72406 10.6446
    CHANNELS 3 Zrotation Xrotation Yrotation
    JOINT RightLeg
    {
      OFFSET -2.57161 -44.7178 -7.85259
      CHANNELS 3 Zrotation Xrotation Yrotation
      JOINT RightFoot
      {
        OFFSET -3.10148 -46.5936 -4.03391
        CHANNELS 3 Zrotation Xrotation Yrotation
        JOINT RightToeBase
        {
          OFFSET -0.0828122 -6.13587 12.8035
          CHANNELS 3 Zrotation Xrotation Yrotation
          End Site
          {
            OFFSET -0.131328 -1.35082 5.13018
          }
        }
      }
    }
  }
}
MOTION
Frames:	15
Frame Time:	0.0333333
-242.653 98.7439 237.796 74.4227 41.6919 14.1108 -70.1915 0 88.8779 92.5581 74.1833 1.94172 3.97903 23.3166 3.37355 -146.315 21.0122 173.458 -146.733 57.3244 163.894 2.65149 0.0590678 -27.3752 -115.39 55.9699 -71.6173 -12.8623 58.8373 14.4553 3.34161 -0.0738939 -0.879435 0.31179 -1.04271 25.8329 -69.5823 -49.1831 112.64 8.63155 -9.05288 32.6866 9.40488 0.0269656 -0.0152428 -40.7908 -1.32679 93.35 0.713038 16.9255 -8.76748 1.87166 4.64407 -0.0815567 -5.6297 -14.8845 18.4654 -70.688 7.22784 77.8278 2.26145 29.3309 10.7741 -7.16357 -12.2168 1.15187 4.72935 3.49496 -14.5996 
-239.524 98.6285 234.971 75.6947 40.2391 12.6899 -70.1915 0 88.8779 92.4913 75.0235 1.18808 4.45024 24.1534 3.41202 -146.001 20.8275 173.121 -147.002 57.1532 163.52 2.67142 -0.0216553 -27.7316 -116.054 55.495 -71.0898 -12.6737 59.1641 14.5962 2.60738 -0.0484271 -0.537164 0.33534 -1.21048 26.1591 -70.0687 -49.0857 111.873 9.35551 -10.1141 32.903 8.35747 -0.00154212 -0.390192 -41.9757 -0.515835 94.7286 -0.140346 15.1349 -9.20177 1.51283 3.38259 -0.0973861 -5.70649 -13.7409 20.0557 -73.5321 7.16606 78.5898 1.19087 29.8272 13.3216 -6.6308 -10.6989 1.12255 5.37026 0.367085 -14.5535 
-236.343 98.2273 231.584 75.535 40.5266 12.1335 -70.1915 0 88.8779 90.1505 74.7496 2.41114 4.2847 23.9492 3.01233 -145.664 20.4668 172.643 -147.678 56.9468 163.74 2.6713 0.45126 -26.9439 -117.168 55.4596 -69.9387 -12.4454 59.487 14.7317 2.03179 -0.0479354 -1.06412 0.34211 -1.24107 26.6059 -70.0203 -49.7016 110.666 9.0926 -10.0103 32.0408 8.1257 0.0699111 0.699028 -41.493 -1.97763 94.4381 0.106864 18.9321 -8.52692 2.33988 5.17796 -0.129431 -5.55256 -13.3212 18.9939 -74.9629 6.02409 79.1517 1.16562 32.1289 13.1223 -6.47962 -9.89269 1.10586 4.64433 -2.22931 -10.868 
-233.129 97.8428 228.271 75.5854 40.4915 10.9505 -70.1915 0 88.8779 88.0309 75.154 2.93876 3.82173 24.3291 2.95293 -145.124 20.606 172.123 -147.837 57.2225 163.95 2.65958 0.345091 -26.9901 -117.402 54.8387 -69.856 -12.5977 60.3451 15.1076 1.73707 -0.0448053 -1.28799 0.381319 -1.51074 26.9067 -71.2718 -50.7921 107.535 8.71619 -10.028 30.3009 8.73508 0.126489 1.41723 -40.9094 -4.41759 92.3329 0.71417 24.3148 -7.1665 3.4611 8.27058 -0.186333 -5.27713 -7.33596 20.2725 -75.5281 5.16262 82.8429 2.01248 35.7807 9.31212 -5.94739 -9.41304 1.07732 4.03501 -1.71438 -9.51184 
-230.132 97.5869 224.962 76.5427 41.0251 8.34549 -70.1915 0 88.8779 88.8376 75.5816 -0.191333 3.89846 24.7231 1.95193 -145.374 20.5762 171.287 -147.791 57.2601 163.817 2.60664 0.299357 -26.4993 -117.464 54.8886 -70.925 -12.2358 60.1388 15.014 2.80238 -0.0379067 -0.0117568 0.465794 -2.05377 27.5963 -71.0166 -51.8144 105.798 8.16731 -9.82006 28.2621 8.01573 0.0590793 0.547119 -41.4967 -7.69669 89.6518 0.356722 29.0845 -4.00932 4.48628 10.666 -0.304253 -4.56305 -9.79292 14.2576 -74.7604 1.41735 81.7776 2.44095 42.6113 7.39918 -5.17894 -7.61894 0.99878 0.521191 -0.657487 -0.826725 
-227.251 97.2413 221.935 77.173 41.5925 6.38397 -70.1915 0 88.8779 88.4375 75.8432 -2.04621 4.13814 24.5355 1.77416 -146.018 20.4811 171.994 -149.549 57.4985 165.243 2.6343 0.287143 -26.8141 -117.135 54.7432 -72.5762 -12.0795 60.2071 15.0437 2.39624 -0.0413958 -0.416808 0.434429 -1.87113 27.1766 -70.2178 -53.2707 104.783 8.60015 -12.5716 24.4511 7.95142 -0.103068 -1.97771 -42.0836 -10.2576 88.1107 -0.237764 33.338 -0.245618 6.2264 11.177 -0.662967 -4.94628 -12.9898 14.1405 -71.5877 -1.8741 81.3141 3.04147 51.7512 3.81535 -4.05513 -5.21495 0.848797 -8.60256 8.00416 12.7053 
-224.641 97.0157 219.116 77.3876 41.9195 4.88398 -70.1915 0 88.8779 89.628 75.8946 -5.23073 3.44728 24.2711 1.8357 -146.278 20.4136 172.031 -149.766 57.4525 165.285 2.62511 0.301637 -26.6929 -115.874 55.1735 -74.8337 -11.7346 58.7854 14.4396 1.6899 -0.00446332 0.929736 0.426462 -1.84266 26.8324 -75.0714 -54.658 99.7213 5.74991 -12.9803 20.2965 7.00572 -0.101436 -2.18875 -42.8061 -11.7477 88.9437 -0.796709 36.4153 0.455055 7.43111 10.3658 -0.928837 -5.26485 -15.4531 14.1869 -66.4328 -3.67589 83.4171 4.52092 61.5156 0.613325 -2.35068 -1.08685 0.508128 -15.9626 21.8328 15.6847 
-221.979 97.1368 216.421 78.6557 42.3366 2.08229 -70.1915 0 88.8779 91.0969 75.8794 -9.59836 3.77894 24.0137 1.55784 -146.702 19.9933 171.239 -148.779 56.8697 164.874 2.53863 0.0542047 -26.1509 -115.063 56.0098 -77.5851 -11.8019 58.9199 14.4943 3.01286 -0.0637077 -0.786495 0.442898 -1.88696 27.7012 -86.8232 -54.4776 90.2363 3.68448 -19.5585 15.8693 5.8256 -0.100778 -2.5899 -45.5747 -13.1077 91.6748 -0.550038 37.2404 -0.741886 6.45522 7.15835 -0.776049 -5.0334 -13.9578 13.8193 -61.5281 -5.28926 86.4011 8.00517 70.5023 -1.81475 -3.18161 -0.702016 0.585026 -8.77434 18.3113 5.55074 
-219.082 97.5137 213.78 80.2385 43.3946 0.765154 -70.1915 0 88.8779 93.5912 75.1561 -13.7941 4.02786 22.8728 2.27561 -147.505 19.704 172.084 -149.607 56.6611 165.62 2.60244 0.20803 -26.599 -112.713 56.4735 -82.8025 -12.1461 59.1073 14.5721 4.08627 -0.0706926 -0.357458 0.422073 -1.72403 27.9794 -94.7758 -53.7772 83.2381 2.42825 -24.8838 12.4064 4.99849 -0.120633 -3.53176 -49.2842 -13.8732 92.2351 0.194801 37.4479 -2.45221 6.62095 5.4619 -0.830708 -5.10803 -14.9294 13.3092 -57.5086 -5.92318 86.7476 11.7409 75.8225 -6.67838 -3.71541 -2.35045 0.710884 -8.73073 19.3437 4.83811 
-216.158 97.8486 211.257 80.2255 44.1893 1.78665 -70.1915 0 88.8779 93.2706 74.5282 -13.2437 4.25391 21.9069 2.58959 -147.193 19.4892 172.721 -148.541 56.2082 165.637 2.59201 0.132712 -26.6071 -111.912 57.4933 -86.6285 -11.9641 59.4256 14.7044 4.27014 -0.105653 -1.14433 0.400008 -1.58109 27.8822 -99.1441 -53.3115 78.352 1.74209 -27.2249 10.0424 4.80813 -0.159563 -4.74111 -51.4741 -12.181 94.4276 0.690607 38.3046 -6.44316 7.5124 4.16704 -0.988544 -5.46482 -17.5014 13.3725 -52.6521 -5.17375 86.3872 14.7955 78.3712 -10.2534 -4.44815 -3.3173 0.816851 -7.2987 17.8525 3.11445 
-213.082 98.2812 208.627 79.4235 45.416 3.54307 -70.1915 0 88.8779 90.6613 73.7932 -10.32 4.17779 20.9408 3.03805 -146.878 19.3943 172.223 -148.482 56.0887 165.133 2.48933 0.0354247 -25.64 -109.377 59.0758 -90.8406 -11.691 57.5033 13.9439 5.41704 -0.122805 -0.913229 0.407472 -1.61587 28.129 -101.299 -52.6974 74.2971 1.30779 -26.4225 9.01608 5.19949 -0.204483 -5.48927 -53.7743 -10.6218 96.1148 1.59782 38.2396 -10.5992 7.58243 2.85507 -1.00777 -5.57755 -18.5832 12.8429 -48.0742 -4.65289 85.2731 14.6336 78.1747 -9.6479 -5.05442 -4.20448 0.897668 -5.02905 14.8606 0.587653 
-210.029 98.5435 206.064 78.6899 46.5456 4.83435 -70.1915 0 88.8779 88.4747 73.455 -8.54292 3.69867 20.2406 4.37266 -146.158 19.6613 172.304 -148.221 56.3657 165.291 2.44074 -0.20341 -25.4696 -105.737 60.2029 -96.7796 -12.04 56.944 13.7402 2.57701 -0.075877 -1.64204 0.452053 -1.94634 27.7419 -102.367 -52.3333 70.5737 1.57135 -25.7415 9.61271 5.08254 -0.206813 -5.68358 -56.0383 -9.00847 98.5276 2.25793 38.0323 -15.8914 7.50491 1.28659 -1.00754 -5.68906 -18.9004 13.8444 -44.1917 -4.34241 84.6194 11.3091 75.6998 -6.88862 -5.3674 -5.296 0.951447 -3.71034 12.4276 -0.561389 
-207.002 98.8844 203.437 78.3474 48.0538 6.06668 -70.1915 0 88.8779 88.5367 72.569 -8.90225 3.00206 19.1375 5.78139 -147.445 19.3173 172.875 -150.132 56.2224 165.462 2.51469 0.288709 -25.5323 -100.278 60.3858 -103.842 -12.0582 53.4192 12.6087 3.10337 -0.0372356 0.162744 0.432781 -1.83072 27.5322 -102.891 -51.7939 67.4656 1.80854 -24.99 10.2632 4.67919 -0.179453 -5.44153 -59.0171 -7.45636 99.8794 2.85555 37.1733 -18.858 8.7804 0.51148 -1.17197 -5.64342 -19.3906 12.025 -41.681 -4.62469 82.8833 7.8254 70.7451 -2.54892 -5.70429 -6.72403 1.00833 -0.76167 11.5615 -6.22807 
-204.076 99.0163 200.871 77.5607 49.1937 7.20722 -70.1915 0 88.8779 86.7564 71.9023 -6.98313 3.18834 18.6771 5.69777 -147.881 19.1138 172.171 -149.857 56.003 165.323 2.43289 0.356493 -24.5602 -95.0586 60.7316 -110.575 -12.8291 52.7469 12.4126 4.07715 -0.0555696 0.0311747 0.470293 -2.0407 28.0778 -102.871 -51.4018 65.6227 1.91187 -23.8309 10.8951 4.93942 -0.172589 -4.95314 -61.4295 -6.41648 100.66 3.00814 36.4867 -21.433 9.28102 0.54425 -1.23464 -5.96303 -21.5931 11.5889 -39.624 -5.3028 81.3996 5.12437 63.9146 0.403404 -5.4364 -7.22415 1.00349 0.7893 9.17714 -8.288 
-201.223 99.1909 198.408 76.9611 49.9402 8.21391 -70.1915 0 88.8779 85.5704 71.4591 -5.69478 3.30214 18.3616 6.2694 -146.951 19.4664 172.054 -148.132 56.2858 166.38 2.41171 0.235495 -24.5018 -90.8482 60.1769 -116.23 -12.6375 48.5454 11.3802 7.52647 -0.362045 -3.68459 0.491374 -2.17589 28.1422 -103.513 -51.2634 63.3596 2.36318 -23.0997 11.6912 5.08667 -0.175642 -4.87981 -64.2811 -5.42466 101.084 3.0527 34.9114 -23.2804 9.07811 0.239268 -1.20731 -6.15269 -22.8257 11.3535 -38.9289 -5.81092 79.5124 3.0854 54.3314 2.00666 -5.15005 -6.74218 0.973629 0.752151 9.22373 -8.23075 
